<svg width="36" height="38" viewBox="0 0 36 38" fill="none" xmlns="http://www.w3.org/2000/svg">
<path d="M23.9002 27.7001V31.3001L17.2002 36.4001V30.9001L22.4002 27.0001C22.8002 26.7001 23.4002 26.8001 23.7002 27.2001C23.8002 27.3001 23.9002 27.5001 23.9002 27.7001Z" fill="#16AB74" fill-opacity="0.2"/>
<path d="M17.2004 36.3998L10.4004 31.2998V27.6998C10.4004 27.1998 10.8004 26.7998 11.4004 26.7998C11.6004 26.7998 11.8004 26.8998 11.9004 26.9998L17.1004 30.8998L17.2004 36.3998Z" fill="#1C8F4E"/>
<path d="M28.4002 2.5V5.8C28.4002 5.9 28.3002 6 28.3002 6.1L17.2002 14.4V9L26.7002 1.8C27.1002 1.4 27.7002 1.4 28.1002 1.8C28.3002 2 28.4002 2.2 28.4002 2.5Z" fill="#EB599B"/>
<path d="M16.5 19.7C16.5 19.5 16.4 19.3 16.2 19.2L4.3 10.2C3.5 9.69998 2.3 9.89998 1.8 10.8C1.6 11.1 1.5 11.4 1.5 11.7V24.7L6 28V18.1C6 17.8 6.3 17.6 6.6 17.6C6.7 17.6 6.8 17.6 6.9 17.7L15.5 24.2C15.8 24.4 16.2 24.4 16.4 24.1C16.5 24 16.5 23.9 16.5 23.7V19.7Z" fill="url(#paint0_linear_2_83)"/>
<path d="M29.9002 10.2002L18.0002 19.2002C17.8002 19.3002 17.7002 19.5002 17.7002 19.7002V23.6002C17.7002 23.9002 18.0002 24.2002 18.3002 24.2002C18.4002 24.2002 18.6002 24.2002 18.7002 24.1002L27.3002 17.6002C27.5002 17.4002 27.9002 17.5002 28.1002 17.7002C28.2002 17.8002 28.2002 17.9002 28.2002 18.0002V28.0002L32.6002 24.7002V11.7002C32.6002 10.7002 31.7002 9.90011 30.7002 10.0002C30.5002 10.0002 30.2002 10.1002 29.9002 10.2002Z" fill="url(#paint1_linear_2_83)"/>
<path d="M7.6 1.69982C7.2 1.39982 6.5 1.49982 6.2 1.89982C6.1 2.09982 6 2.29982 6 2.49982V9.49982C6 9.79982 6.1 9.99982 6.3 10.1998L9.4 12.5998C9.7 12.7998 10 12.6998 10.2 12.3998C10.2 12.2998 10.3 12.1998 10.3 12.0998V10.0998C10.3 9.89982 10.5 9.69982 10.7 9.69982C10.8 9.69982 10.8 9.69982 10.9 9.79982L17.1 14.3998V8.99982L7.6 1.69982Z" fill="#E52C46"/>
<defs>
<linearGradient id="paint0_linear_2_83" x1="1.6041" y1="18.9606" x2="16.5225" y2="18.9606" gradientUnits="userSpaceOnUse">
<stop stop-color="#FDC418"/>
<stop offset="1" stop-color="#F6A217"/>
</linearGradient>
<linearGradient id="paint1_linear_2_83" x1="17.7823" y1="18.9787" x2="32.7007" y2="18.9787" gradientUnits="userSpaceOnUse">
<stop stop-color="#0319F7"/>
<stop offset="1" stop-color="#2041F9"/>
</linearGradient>
</defs>
</svg>
