<svg viewBox="0 0 329 54" fill="none" xmlns="http://www.w3.org/2000/svg">
<path d="M31.9002 35.7001V39.3001L25.2002 44.4001V38.9001L30.4002 35.0001C30.8002 34.7001 31.4002 34.8001 31.7002 35.2001C31.8002 35.3001 31.9002 35.5001 31.9002 35.7001Z" fill="#16AB74" fill-opacity="0.2"/>
<path d="M25.2004 44.3998L18.4004 39.2998V35.6998C18.4004 35.1998 18.8004 34.7998 19.4004 34.7998C19.6004 34.7998 19.8004 34.8998 19.9004 34.9998L25.1004 38.8998L25.2004 44.3998Z" fill="#1C8F4E"/>
<path d="M36.4002 10.5V13.8C36.4002 13.9 36.3002 14 36.3002 14.1L25.2002 22.4V17L34.7002 9.8C35.1002 9.4 35.7002 9.4 36.1002 9.8C36.3002 10 36.4002 10.2 36.4002 10.5Z" fill="#EB599B"/>
<path d="M24.5 27.7C24.5 27.5 24.4 27.3 24.2 27.2L12.3 18.2C11.5 17.7 10.3 17.9 9.8 18.8C9.6 19.1 9.5 19.4 9.5 19.7V32.7L14 36V26.1C14 25.8 14.3 25.6 14.6 25.6C14.7 25.6 14.8 25.6 14.9 25.7L23.5 32.2C23.8 32.4 24.2 32.4 24.4 32.1C24.5 32 24.5 31.9 24.5 31.7V27.7Z" fill="url(#paint0_linear_2_82)"/>
<path d="M37.9002 18.2002L26.0002 27.2002C25.8002 27.3002 25.7002 27.5002 25.7002 27.7002V31.6002C25.7002 31.9002 26.0002 32.2002 26.3002 32.2002C26.4002 32.2002 26.6002 32.2002 26.7002 32.1002L35.3002 25.6002C35.5002 25.4002 35.9002 25.5002 36.1002 25.7002C36.2002 25.8002 36.2002 25.9002 36.2002 26.0002V36.0002L40.6002 32.7002V19.7002C40.6002 18.7002 39.7002 17.9001 38.7002 18.0002C38.5002 18.0002 38.2002 18.1002 37.9002 18.2002Z" fill="url(#paint1_linear_2_82)"/>
<path d="M15.6 9.69982C15.2 9.39982 14.5 9.49982 14.2 9.89982C14.1 10.0998 14 10.2998 14 10.4998V17.4998C14 17.7998 14.1 17.9998 14.3 18.1998L17.4 20.5998C17.7 20.7998 18 20.6998 18.2 20.3998C18.2 20.2998 18.3 20.1998 18.3 20.0998V18.0998C18.3 17.8998 18.5 17.6998 18.7 17.6998C18.8 17.6998 18.8 17.6998 18.9 17.7998L25.1 22.3998V16.9998L15.6 9.69982Z" fill="#E52C46"/>
<path d="M72.2031 15.25V38H67.5312V15.25H72.2031ZM79.2031 15.25V18.9219H60.6406V15.25H79.2031ZM85 24.7812V38H80.5V21.0938H84.7344L85 24.7812ZM90.0938 20.9844L90.0156 25.1562C89.7969 25.125 89.5312 25.099 89.2188 25.0781C88.9167 25.0469 88.6406 25.0312 88.3906 25.0312C87.7552 25.0312 87.2031 25.1146 86.7344 25.2812C86.276 25.4375 85.8906 25.6719 85.5781 25.9844C85.276 26.2969 85.0469 26.6771 84.8906 27.125C84.7448 27.5729 84.6615 28.0833 84.6406 28.6562L83.7344 28.375C83.7344 27.2812 83.8438 26.276 84.0625 25.3594C84.2812 24.4323 84.599 23.625 85.0156 22.9375C85.4427 22.25 85.9635 21.7188 86.5781 21.3438C87.1927 20.9688 87.8958 20.7812 88.6875 20.7812C88.9375 20.7812 89.1927 20.8021 89.4531 20.8438C89.7135 20.875 89.9271 20.9219 90.0938 20.9844ZM100.812 34.1875V26.6562C100.812 26.1146 100.724 25.651 100.547 25.2656C100.37 24.8698 100.094 24.5625 99.7188 24.3438C99.3542 24.125 98.8802 24.0156 98.2969 24.0156C97.7969 24.0156 97.3646 24.1042 97 24.2812C96.6354 24.4479 96.3542 24.6927 96.1562 25.0156C95.9583 25.3281 95.8594 25.6979 95.8594 26.125H91.3594C91.3594 25.4062 91.526 24.724 91.8594 24.0781C92.1927 23.4323 92.6771 22.8646 93.3125 22.375C93.9479 21.875 94.7031 21.4844 95.5781 21.2031C96.4635 20.9219 97.4531 20.7812 98.5469 20.7812C99.8594 20.7812 101.026 21 102.047 21.4375C103.068 21.875 103.87 22.5312 104.453 23.4062C105.047 24.2812 105.344 25.375 105.344 26.6875V33.9219C105.344 34.849 105.401 35.6094 105.516 36.2031C105.63 36.7865 105.797 37.2969 106.016 37.7344V38H101.469C101.25 37.5417 101.083 36.9688 100.969 36.2812C100.865 35.5833 100.812 34.8854 100.812 34.1875ZM101.406 27.7031L101.438 30.25H98.9219C98.3281 30.25 97.8125 30.3177 97.375 30.4531C96.9375 30.5885 96.5781 30.7812 96.2969 31.0312C96.0156 31.2708 95.8073 31.5521 95.6719 31.875C95.5469 32.1979 95.4844 32.5521 95.4844 32.9375C95.4844 33.3229 95.5729 33.6719 95.75 33.9844C95.9271 34.2865 96.1823 34.526 96.5156 34.7031C96.849 34.8698 97.2396 34.9531 97.6875 34.9531C98.3646 34.9531 98.9531 34.8177 99.4531 34.5469C99.9531 34.276 100.339 33.9427 100.609 33.5469C100.891 33.151 101.036 32.776 101.047 32.4219L102.234 34.3281C102.068 34.7552 101.839 35.1979 101.547 35.6562C101.266 36.1146 100.906 36.5469 100.469 36.9531C100.031 37.349 99.5052 37.6771 98.8906 37.9375C98.276 38.1875 97.5469 38.3125 96.7031 38.3125C95.6302 38.3125 94.6562 38.099 93.7812 37.6719C92.9167 37.2344 92.2292 36.6354 91.7188 35.875C91.2188 35.1042 90.9688 34.2292 90.9688 33.25C90.9688 32.3646 91.1354 31.5781 91.4688 30.8906C91.8021 30.2031 92.2917 29.625 92.9375 29.1562C93.5938 28.6771 94.4115 28.3177 95.3906 28.0781C96.3698 27.8281 97.5052 27.7031 98.7969 27.7031H101.406ZM108.812 14H113.312V34.125L112.859 38H108.812V14ZM124.016 29.375V29.7031C124.016 30.9635 123.88 32.1198 123.609 33.1719C123.349 34.224 122.943 35.1354 122.391 35.9062C121.839 36.6667 121.151 37.2604 120.328 37.6875C119.516 38.1042 118.557 38.3125 117.453 38.3125C116.422 38.3125 115.526 38.1042 114.766 37.6875C114.016 37.2708 113.385 36.6823 112.875 35.9219C112.365 35.1615 111.953 34.2708 111.641 33.25C111.328 32.2292 111.094 31.1146 110.938 29.9062V29.1875C111.094 27.9792 111.328 26.8646 111.641 25.8438C111.953 24.8229 112.365 23.9323 112.875 23.1719C113.385 22.4115 114.016 21.8229 114.766 21.4062C115.516 20.9896 116.401 20.7812 117.422 20.7812C118.536 20.7812 119.505 20.9948 120.328 21.4219C121.161 21.8385 121.849 22.4323 122.391 23.2031C122.943 23.9635 123.349 24.8698 123.609 25.9219C123.88 26.9635 124.016 28.1146 124.016 29.375ZM119.516 29.7031V29.375C119.516 28.6875 119.464 28.0417 119.359 27.4375C119.266 26.8229 119.099 26.2865 118.859 25.8281C118.62 25.3594 118.292 24.9896 117.875 24.7188C117.469 24.4479 116.943 24.3125 116.297 24.3125C115.682 24.3125 115.161 24.4167 114.734 24.625C114.307 24.8333 113.953 25.125 113.672 25.5C113.401 25.875 113.198 26.3229 113.062 26.8438C112.927 27.3542 112.844 27.9167 112.812 28.5312V30.5781C112.844 31.401 112.979 32.1302 113.219 32.7656C113.469 33.3906 113.844 33.8854 114.344 34.25C114.854 34.6042 115.516 34.7812 116.328 34.7812C116.964 34.7812 117.49 34.6562 117.906 34.4062C118.323 34.1562 118.646 33.8021 118.875 33.3438C119.115 32.8854 119.281 32.349 119.375 31.7344C119.469 31.1094 119.516 30.4323 119.516 29.7031ZM135.938 34.1875V26.6562C135.938 26.1146 135.849 25.651 135.672 25.2656C135.495 24.8698 135.219 24.5625 134.844 24.3438C134.479 24.125 134.005 24.0156 133.422 24.0156C132.922 24.0156 132.49 24.1042 132.125 24.2812C131.76 24.4479 131.479 24.6927 131.281 25.0156C131.083 25.3281 130.984 25.6979 130.984 26.125H126.484C126.484 25.4062 126.651 24.724 126.984 24.0781C127.318 23.4323 127.802 22.8646 128.438 22.375C129.073 21.875 129.828 21.4844 130.703 21.2031C131.589 20.9219 132.578 20.7812 133.672 20.7812C134.984 20.7812 136.151 21 137.172 21.4375C138.193 21.875 138.995 22.5312 139.578 23.4062C140.172 24.2812 140.469 25.375 140.469 26.6875V33.9219C140.469 34.849 140.526 35.6094 140.641 36.2031C140.755 36.7865 140.922 37.2969 141.141 37.7344V38H136.594C136.375 37.5417 136.208 36.9688 136.094 36.2812C135.99 35.5833 135.938 34.8854 135.938 34.1875ZM136.531 27.7031L136.562 30.25H134.047C133.453 30.25 132.938 30.3177 132.5 30.4531C132.062 30.5885 131.703 30.7812 131.422 31.0312C131.141 31.2708 130.932 31.5521 130.797 31.875C130.672 32.1979 130.609 32.5521 130.609 32.9375C130.609 33.3229 130.698 33.6719 130.875 33.9844C131.052 34.2865 131.307 34.526 131.641 34.7031C131.974 34.8698 132.365 34.9531 132.812 34.9531C133.49 34.9531 134.078 34.8177 134.578 34.5469C135.078 34.276 135.464 33.9427 135.734 33.5469C136.016 33.151 136.161 32.776 136.172 32.4219L137.359 34.3281C137.193 34.7552 136.964 35.1979 136.672 35.6562C136.391 36.1146 136.031 36.5469 135.594 36.9531C135.156 37.349 134.63 37.6771 134.016 37.9375C133.401 38.1875 132.672 38.3125 131.828 38.3125C130.755 38.3125 129.781 38.099 128.906 37.6719C128.042 37.2344 127.354 36.6354 126.844 35.875C126.344 35.1042 126.094 34.2292 126.094 33.25C126.094 32.3646 126.26 31.5781 126.594 30.8906C126.927 30.2031 127.417 29.625 128.062 29.1562C128.719 28.6771 129.536 28.3177 130.516 28.0781C131.495 27.8281 132.63 27.7031 133.922 27.7031H136.531ZM148.688 14V38H144.172V14H148.688ZM156.797 14V38H152.297V14H156.797ZM156.156 28.9531H154.922C154.932 27.776 155.089 26.6927 155.391 25.7031C155.693 24.7031 156.125 23.8385 156.688 23.1094C157.25 22.3698 157.922 21.7969 158.703 21.3906C159.495 20.9844 160.37 20.7812 161.328 20.7812C162.161 20.7812 162.917 20.901 163.594 21.1406C164.281 21.3698 164.87 21.7448 165.359 22.2656C165.859 22.776 166.245 23.4479 166.516 24.2812C166.786 25.1146 166.922 26.125 166.922 27.3125V38H162.391V27.2812C162.391 26.5312 162.281 25.9427 162.062 25.5156C161.854 25.0781 161.547 24.7708 161.141 24.5938C160.745 24.4062 160.255 24.3125 159.672 24.3125C159.026 24.3125 158.474 24.4323 158.016 24.6719C157.568 24.9115 157.208 25.2448 156.938 25.6719C156.667 26.0885 156.469 26.5781 156.344 27.1406C156.219 27.7031 156.156 28.3073 156.156 28.9531ZM178.125 38.3125C176.812 38.3125 175.635 38.1042 174.594 37.6875C173.552 37.2604 172.667 36.6719 171.938 35.9219C171.219 35.1719 170.667 34.3021 170.281 33.3125C169.896 32.3125 169.703 31.25 169.703 30.125V29.5C169.703 28.2188 169.885 27.0469 170.25 25.9844C170.615 24.9219 171.135 24 171.812 23.2188C172.5 22.4375 173.333 21.8385 174.312 21.4219C175.292 20.9948 176.396 20.7812 177.625 20.7812C178.823 20.7812 179.885 20.9792 180.812 21.375C181.74 21.7708 182.516 22.3333 183.141 23.0625C183.776 23.7917 184.255 24.6667 184.578 25.6875C184.901 26.6979 185.062 27.8229 185.062 29.0625V30.9375H171.625V27.9375H180.641V27.5938C180.641 26.9688 180.526 26.4115 180.297 25.9219C180.078 25.4219 179.745 25.026 179.297 24.7344C178.849 24.4427 178.276 24.2969 177.578 24.2969C176.984 24.2969 176.474 24.4271 176.047 24.6875C175.62 24.9479 175.271 25.3125 175 25.7812C174.74 26.25 174.542 26.8021 174.406 27.4375C174.281 28.0625 174.219 28.75 174.219 29.5V30.125C174.219 30.8021 174.312 31.4271 174.5 32C174.698 32.5729 174.974 33.0677 175.328 33.4844C175.693 33.901 176.13 34.224 176.641 34.4531C177.161 34.6823 177.75 34.7969 178.406 34.7969C179.219 34.7969 179.974 34.6406 180.672 34.3281C181.38 34.0052 181.99 33.5208 182.5 32.875L184.688 35.25C184.333 35.7604 183.849 36.25 183.234 36.7188C182.63 37.1875 181.901 37.5729 181.047 37.875C180.193 38.1667 179.219 38.3125 178.125 38.3125ZM209.062 30.4531H213.734C213.641 31.9844 213.219 33.3438 212.469 34.5312C211.729 35.7188 210.693 36.6458 209.359 37.3125C208.036 37.9792 206.443 38.3125 204.578 38.3125C203.12 38.3125 201.812 38.0625 200.656 37.5625C199.5 37.0521 198.51 36.3229 197.688 35.375C196.875 34.4271 196.255 33.2812 195.828 31.9375C195.401 30.5938 195.188 29.0885 195.188 27.4219V25.8438C195.188 24.1771 195.406 22.6719 195.844 21.3281C196.292 19.974 196.927 18.8229 197.75 17.875C198.583 16.9271 199.578 16.1979 200.734 15.6875C201.891 15.1771 203.182 14.9219 204.609 14.9219C206.505 14.9219 208.104 15.2656 209.406 15.9531C210.719 16.6406 211.734 17.5885 212.453 18.7969C213.182 20.0052 213.62 21.3802 213.766 22.9219H209.078C209.026 22.0052 208.844 21.2292 208.531 20.5938C208.219 19.9479 207.745 19.4635 207.109 19.1406C206.484 18.8073 205.651 18.6406 204.609 18.6406C203.828 18.6406 203.146 18.7865 202.562 19.0781C201.979 19.3698 201.49 19.8125 201.094 20.4062C200.698 21 200.401 21.75 200.203 22.6562C200.016 23.5521 199.922 24.6042 199.922 25.8125V27.4219C199.922 28.599 200.01 29.6354 200.188 30.5312C200.365 31.4167 200.635 32.1667 201 32.7812C201.375 33.3854 201.854 33.8438 202.438 34.1562C203.031 34.4583 203.745 34.6094 204.578 34.6094C205.557 34.6094 206.365 34.4531 207 34.1406C207.635 33.8281 208.12 33.3646 208.453 32.75C208.797 32.1354 209 31.3698 209.062 30.4531ZM215.812 29.7188V29.3906C215.812 28.151 215.99 27.0104 216.344 25.9688C216.698 24.9167 217.214 24.0052 217.891 23.2344C218.568 22.4635 219.401 21.8646 220.391 21.4375C221.38 21 222.516 20.7812 223.797 20.7812C225.078 20.7812 226.219 21 227.219 21.4375C228.219 21.8646 229.057 22.4635 229.734 23.2344C230.422 24.0052 230.943 24.9167 231.297 25.9688C231.651 27.0104 231.828 28.151 231.828 29.3906V29.7188C231.828 30.9479 231.651 32.0885 231.297 33.1406C230.943 34.1823 230.422 35.0938 229.734 35.875C229.057 36.6458 228.224 37.2448 227.234 37.6719C226.245 38.099 225.109 38.3125 223.828 38.3125C222.547 38.3125 221.406 38.099 220.406 37.6719C219.417 37.2448 218.578 36.6458 217.891 35.875C217.214 35.0938 216.698 34.1823 216.344 33.1406C215.99 32.0885 215.812 30.9479 215.812 29.7188ZM220.312 29.3906V29.7188C220.312 30.4271 220.375 31.0885 220.5 31.7031C220.625 32.3177 220.823 32.8594 221.094 33.3281C221.375 33.7865 221.74 34.1458 222.188 34.4062C222.635 34.6667 223.182 34.7969 223.828 34.7969C224.453 34.7969 224.99 34.6667 225.438 34.4062C225.885 34.1458 226.245 33.7865 226.516 33.3281C226.786 32.8594 226.984 32.3177 227.109 31.7031C227.245 31.0885 227.312 30.4271 227.312 29.7188V29.3906C227.312 28.7031 227.245 28.0573 227.109 27.4531C226.984 26.8385 226.781 26.2969 226.5 25.8281C226.229 25.349 225.87 24.974 225.422 24.7031C224.974 24.4323 224.432 24.2969 223.797 24.2969C223.161 24.2969 222.62 24.4323 222.172 24.7031C221.734 24.974 221.375 25.349 221.094 25.8281C220.823 26.2969 220.625 26.8385 220.5 27.4531C220.375 28.0573 220.312 28.7031 220.312 29.3906ZM239 24.7031V38H234.5V21.0938H238.719L239 24.7031ZM238.344 28.9531H237.125C237.125 27.7031 237.286 26.5781 237.609 25.5781C237.932 24.5677 238.385 23.7083 238.969 23C239.552 22.2812 240.245 21.7344 241.047 21.3594C241.859 20.974 242.766 20.7812 243.766 20.7812C244.557 20.7812 245.281 20.8958 245.938 21.125C246.594 21.3542 247.156 21.7188 247.625 22.2188C248.104 22.7188 248.469 23.3802 248.719 24.2031C248.979 25.026 249.109 26.0312 249.109 27.2188V38H244.578V27.2031C244.578 26.4531 244.474 25.8698 244.266 25.4531C244.057 25.0365 243.75 24.7448 243.344 24.5781C242.948 24.401 242.458 24.3125 241.875 24.3125C241.271 24.3125 240.745 24.4323 240.297 24.6719C239.859 24.9115 239.495 25.2448 239.203 25.6719C238.922 26.0885 238.708 26.5781 238.562 27.1406C238.417 27.7031 238.344 28.3073 238.344 28.9531ZM251.812 29.7188V29.3906C251.812 28.151 251.99 27.0104 252.344 25.9688C252.698 24.9167 253.214 24.0052 253.891 23.2344C254.568 22.4635 255.401 21.8646 256.391 21.4375C257.38 21 258.516 20.7812 259.797 20.7812C261.078 20.7812 262.219 21 263.219 21.4375C264.219 21.8646 265.057 22.4635 265.734 23.2344C266.422 24.0052 266.943 24.9167 267.297 25.9688C267.651 27.0104 267.828 28.151 267.828 29.3906V29.7188C267.828 30.9479 267.651 32.0885 267.297 33.1406C266.943 34.1823 266.422 35.0938 265.734 35.875C265.057 36.6458 264.224 37.2448 263.234 37.6719C262.245 38.099 261.109 38.3125 259.828 38.3125C258.547 38.3125 257.406 38.099 256.406 37.6719C255.417 37.2448 254.578 36.6458 253.891 35.875C253.214 35.0938 252.698 34.1823 252.344 33.1406C251.99 32.0885 251.812 30.9479 251.812 29.7188ZM256.312 29.3906V29.7188C256.312 30.4271 256.375 31.0885 256.5 31.7031C256.625 32.3177 256.823 32.8594 257.094 33.3281C257.375 33.7865 257.74 34.1458 258.188 34.4062C258.635 34.6667 259.182 34.7969 259.828 34.7969C260.453 34.7969 260.99 34.6667 261.438 34.4062C261.885 34.1458 262.245 33.7865 262.516 33.3281C262.786 32.8594 262.984 32.3177 263.109 31.7031C263.245 31.0885 263.312 30.4271 263.312 29.7188V29.3906C263.312 28.7031 263.245 28.0573 263.109 27.4531C262.984 26.8385 262.781 26.2969 262.5 25.8281C262.229 25.349 261.87 24.974 261.422 24.7031C260.974 24.4323 260.432 24.2969 259.797 24.2969C259.161 24.2969 258.62 24.4323 258.172 24.7031C257.734 24.974 257.375 25.349 257.094 25.8281C256.823 26.2969 256.625 26.8385 256.5 27.4531C256.375 28.0573 256.312 28.7031 256.312 29.3906ZM279.734 33.3281C279.734 33.0052 279.641 32.7135 279.453 32.4531C279.266 32.1927 278.917 31.9531 278.406 31.7344C277.906 31.5052 277.182 31.2969 276.234 31.1094C275.38 30.9219 274.583 30.6875 273.844 30.4062C273.115 30.1146 272.479 29.7656 271.938 29.3594C271.406 28.9531 270.99 28.474 270.688 27.9219C270.385 27.3594 270.234 26.7188 270.234 26C270.234 25.2917 270.385 24.625 270.688 24C271 23.375 271.443 22.8229 272.016 22.3438C272.599 21.8542 273.307 21.474 274.141 21.2031C274.984 20.9219 275.932 20.7812 276.984 20.7812C278.453 20.7812 279.714 21.0156 280.766 21.4844C281.828 21.9531 282.641 22.599 283.203 23.4219C283.776 24.2344 284.062 25.1615 284.062 26.2031H279.562C279.562 25.7656 279.469 25.375 279.281 25.0312C279.104 24.6771 278.823 24.401 278.438 24.2031C278.062 23.9948 277.573 23.8906 276.969 23.8906C276.469 23.8906 276.036 23.9792 275.672 24.1562C275.307 24.3229 275.026 24.5521 274.828 24.8438C274.641 25.125 274.547 25.4375 274.547 25.7812C274.547 26.0417 274.599 26.276 274.703 26.4844C274.818 26.6823 275 26.8646 275.25 27.0312C275.5 27.1979 275.823 27.3542 276.219 27.5C276.625 27.6354 277.125 27.7604 277.719 27.875C278.938 28.125 280.026 28.4531 280.984 28.8594C281.943 29.2552 282.703 29.7969 283.266 30.4844C283.828 31.1615 284.109 32.0521 284.109 33.1562C284.109 33.9062 283.943 34.5938 283.609 35.2188C283.276 35.8438 282.797 36.3906 282.172 36.8594C281.547 37.3177 280.797 37.6771 279.922 37.9375C279.057 38.1875 278.083 38.3125 277 38.3125C275.427 38.3125 274.094 38.0312 273 37.4688C271.917 36.9062 271.094 36.1927 270.531 35.3281C269.979 34.4531 269.703 33.5573 269.703 32.6406H273.969C273.99 33.2552 274.146 33.75 274.438 34.125C274.74 34.5 275.12 34.7708 275.578 34.9375C276.047 35.1042 276.552 35.1875 277.094 35.1875C277.677 35.1875 278.161 35.1094 278.547 34.9531C278.932 34.7865 279.224 34.5677 279.422 34.2969C279.63 34.0156 279.734 33.6927 279.734 33.3281ZM294.016 34.7969C294.568 34.7969 295.057 34.6927 295.484 34.4844C295.911 34.2656 296.245 33.9635 296.484 33.5781C296.734 33.1823 296.865 32.7188 296.875 32.1875H301.109C301.099 33.375 300.781 34.4323 300.156 35.3594C299.531 36.276 298.693 37 297.641 37.5312C296.589 38.0521 295.411 38.3125 294.109 38.3125C292.797 38.3125 291.651 38.0938 290.672 37.6562C289.703 37.2188 288.896 36.6146 288.25 35.8438C287.604 35.0625 287.12 34.1562 286.797 33.125C286.474 32.0833 286.312 30.9688 286.312 29.7812V29.3281C286.312 28.1302 286.474 27.0156 286.797 25.9844C287.12 24.9427 287.604 24.0365 288.25 23.2656C288.896 22.4844 289.703 21.875 290.672 21.4375C291.641 21 292.776 20.7812 294.078 20.7812C295.464 20.7812 296.677 21.0469 297.719 21.5781C298.771 22.1094 299.594 22.8698 300.188 23.8594C300.792 24.8385 301.099 26 301.109 27.3438H296.875C296.865 26.7812 296.745 26.2708 296.516 25.8125C296.297 25.3542 295.974 24.9896 295.547 24.7188C295.13 24.4375 294.615 24.2969 294 24.2969C293.344 24.2969 292.807 24.4375 292.391 24.7188C291.974 24.9896 291.651 25.3646 291.422 25.8438C291.193 26.3125 291.031 26.849 290.938 27.4531C290.854 28.0469 290.812 28.6719 290.812 29.3281V29.7812C290.812 30.4375 290.854 31.0677 290.938 31.6719C291.021 32.276 291.177 32.8125 291.406 33.2812C291.646 33.75 291.974 34.1198 292.391 34.3906C292.807 34.6615 293.349 34.7969 294.016 34.7969ZM303 29.7188V29.3906C303 28.151 303.177 27.0104 303.531 25.9688C303.885 24.9167 304.401 24.0052 305.078 23.2344C305.755 22.4635 306.589 21.8646 307.578 21.4375C308.568 21 309.703 20.7812 310.984 20.7812C312.266 20.7812 313.406 21 314.406 21.4375C315.406 21.8646 316.245 22.4635 316.922 23.2344C317.609 24.0052 318.13 24.9167 318.484 25.9688C318.839 27.0104 319.016 28.151 319.016 29.3906V29.7188C319.016 30.9479 318.839 32.0885 318.484 33.1406C318.13 34.1823 317.609 35.0938 316.922 35.875C316.245 36.6458 315.411 37.2448 314.422 37.6719C313.432 38.099 312.297 38.3125 311.016 38.3125C309.734 38.3125 308.594 38.099 307.594 37.6719C306.604 37.2448 305.766 36.6458 305.078 35.875C304.401 35.0938 303.885 34.1823 303.531 33.1406C303.177 32.0885 303 30.9479 303 29.7188ZM307.5 29.3906V29.7188C307.5 30.4271 307.562 31.0885 307.688 31.7031C307.812 32.3177 308.01 32.8594 308.281 33.3281C308.562 33.7865 308.927 34.1458 309.375 34.4062C309.823 34.6667 310.37 34.7969 311.016 34.7969C311.641 34.7969 312.177 34.6667 312.625 34.4062C313.073 34.1458 313.432 33.7865 313.703 33.3281C313.974 32.8594 314.172 32.3177 314.297 31.7031C314.432 31.0885 314.5 30.4271 314.5 29.7188V29.3906C314.5 28.7031 314.432 28.0573 314.297 27.4531C314.172 26.8385 313.969 26.2969 313.688 25.8281C313.417 25.349 313.057 24.974 312.609 24.7031C312.161 24.4323 311.62 24.2969 310.984 24.2969C310.349 24.2969 309.807 24.4323 309.359 24.7031C308.922 24.974 308.562 25.349 308.281 25.8281C308.01 26.2969 307.812 26.8385 307.688 27.4531C307.562 28.0573 307.5 28.7031 307.5 29.3906Z" fill="url(#paint2_linear_2_82)"/>
<defs>
<linearGradient id="paint0_linear_2_82" x1="9.6041" y1="26.9606" x2="24.5225" y2="26.9606" gradientUnits="userSpaceOnUse">
<stop stop-color="#FDC418"/>
<stop offset="1" stop-color="#F6A217"/>
</linearGradient>
<linearGradient id="paint1_linear_2_82" x1="25.7823" y1="26.9787" x2="40.7007" y2="26.9787" gradientUnits="userSpaceOnUse">
<stop stop-color="#0319F7"/>
<stop offset="1" stop-color="#2041F9"/>
</linearGradient>
<linearGradient id="paint2_linear_2_82" x1="-18.3987" y1="51.5" x2="388.601" y2="46" gradientUnits="userSpaceOnUse">
<stop stop-color="#003C74"/>
<stop offset="1" stop-color="#0587FF"/>
</linearGradient>
</defs>
</svg>
