<svg viewBox="0 0 25 24" fill="none" xmlns="http://www.w3.org/2000/svg">
<g clip-path="url(#clip0_1052_10)">
<path d="M16.5 16L12.5 12L8.5 16" stroke="#57AEFF" stroke-width="2" stroke-linecap="round" stroke-linejoin="round"/>
<path d="M12.5 12V21" stroke="#57AEFF" stroke-width="2" stroke-linecap="round" stroke-linejoin="round"/>
<path d="M20.89 18.39C21.8654 17.8583 22.6359 17.0169 23.0799 15.9986C23.5239 14.9804 23.6162 13.8432 23.3422 12.7667C23.0682 11.6901 22.4435 10.7355 21.5667 10.0534C20.6899 9.37138 19.6109 9.00073 18.5 9H17.24C16.9373 7.82924 16.3732 6.74233 15.59 5.82099C14.8068 4.89965 13.8249 4.16785 12.7181 3.68061C11.6114 3.19336 10.4086 2.96336 9.20014 3.00788C7.9917 3.05241 6.80909 3.3703 5.7412 3.93766C4.67331 4.50503 3.74793 5.3071 3.03464 6.28358C2.32135 7.26006 1.83871 8.38554 1.623 9.57539C1.40729 10.7653 1.46413 11.9885 1.78923 13.1533C2.11434 14.318 2.69926 15.3939 3.50002 16.3" stroke="#57AEFF" stroke-width="2" stroke-linecap="round" stroke-linejoin="round"/>
<path d="M16.5 16L12.5 12L8.5 16" stroke="#57AEFF" stroke-width="2" stroke-linecap="round" stroke-linejoin="round"/>
</g>
<defs>
<clipPath id="clip0_1052_10">
<rect width="24" height="24" fill="white" transform="translate(0.5)"/>
</clipPath>
</defs>
</svg>
